<svg xmlns="http://www.w3.org/2000/svg" xmlns:xlink="http://www.w3.org/1999/xlink" width="200" zoomAndPan="magnify" viewBox="0 0 150 149.999998" height="200" preserveAspectRatio="xMidYMid meet" version="1.0"><defs><clipPath id="cc0400f866"><path d="M 7 21 L 76 21 L 76 126.75 L 7 126.75 Z M 7 21 " clip-rule="nonzero"/></clipPath><clipPath id="26af22aaa4"><path d="M 11.222656 44.757812 L 142.472656 44.757812 L 142.472656 115.257812 L 11.222656 115.257812 Z M 11.222656 44.757812 " clip-rule="nonzero"/></clipPath></defs><g clip-path="url(#cc0400f866)"><path fill="#f15a29" d="M 67.023438 124.355469 C 32.816406 105.265625 9.644531 70.234375 15.269531 46.109375 C 20.238281 24.773438 46.0625 19.117188 75.621094 31.289062 C 43.144531 15.007812 13.421875 19.757812 8.050781 42.8125 C 2.425781 66.9375 25.597656 101.972656 59.804688 121.058594 C 63.761719 123.273438 67.699219 125.167969 71.566406 126.757812 C 70.058594 126.003906 68.542969 125.203125 67.023438 124.355469 Z M 67.023438 124.355469 " fill-opacity="1" fill-rule="nonzero"/></g><path fill="#808285" d="M 20.214844 56.746094 C 25.859375 32.632812 58.160156 28.570312 92.363281 47.675781 C 122.605469 64.570312 144.203125 93.917969 144.898438 117.15625 C 147.882812 93.234375 125.292969 60.433594 92.609375 42.179688 C 58.40625 23.074219 26.101562 27.132812 20.460938 51.25 C 19.804688 54.039062 19.542969 56.984375 19.632812 60.023438 C 19.773438 58.910156 19.960938 57.820312 20.214844 56.746094 L 20.210938 56.746094 Z M 20.214844 56.746094 " fill-opacity="1" fill-rule="nonzero"/><g clip-path="url(#26af22aaa4)"><path fill="#000000" d="M 104.996094 45.226562 L 99.542969 45.226562 L 99.542969 46.75 C 100.78125 46.410156 102.199219 46.3125 103.195312 46.3125 L 104.90625 46.3125 C 126.433594 46.3125 131.925781 63.972656 131.925781 81.09375 C 131.925781 102.859375 119.15625 113.90625 107.023438 114.144531 C 104.152344 113.804688 101.789062 113.324219 101.378906 111.34375 L 89.941406 57.632812 C 87.597656 47.488281 84.714844 44.773438 79.398438 44.773438 C 77.058594 44.773438 73.996094 45.316406 72.105469 54.191406 L 61.75 100.839844 C 61.390625 102.558594 60.578125 104.644531 59.136719 104.644531 C 57.875 104.644531 57.066406 102.921875 56.164062 98.664062 L 47.519531 57.636719 C 45.359375 47.402344 42.386719 44.773438 37.164062 44.773438 C 34.734375 44.773438 31.671875 45.316406 29.777344 54.191406 L 17.707031 111.253906 C 17.078125 113.699219 13.566406 113.882812 11.222656 114.242188 L 11.222656 115.238281 L 25.09375 115.238281 L 25.09375 114.242188 C 23.652344 114.0625 18.699219 113.609375 19.058594 111.34375 L 31.128906 54.191406 C 31.671875 51.476562 32.480469 49.121094 34.007812 49.121094 C 36.351562 49.121094 37.703125 55.007812 38.332031 58.175781 L 46.796875 98.664062 C 48.6875 107.539062 51.570312 111.164062 55.804688 111.164062 C 58.953125 111.164062 61.296875 109.078125 62.738281 102.558594 L 73.367188 54.191406 C 73.90625 51.476562 74.714844 49.121094 76.246094 49.121094 C 78.589844 49.121094 79.9375 55.007812 80.570312 58.175781 L 91.644531 111.253906 C 92.277344 114.0625 87.773438 113.96875 86.332031 114.242188 L 86.332031 115.238281 L 108.503906 115.238281 C 124.445312 115.238281 142.457031 100.746094 142.457031 79.824219 C 142.460938 56.09375 125.441406 45.226562 104.996094 45.226562 Z M 104.996094 45.226562 " fill-opacity="1" fill-rule="nonzero"/></g></svg>