<svg xmlns="http://www.w3.org/2000/svg" xmlns:xlink="http://www.w3.org/1999/xlink" width="80" zoomAndPan="magnify" viewBox="0 0 60 60" height="80" preserveAspectRatio="xMidYMid meet" version="1.0"><defs><clipPath id="eeea4aaada"><path d="M 3.90625 2.5625 L 56.40625 2.5625 L 56.40625 55.0625 L 3.90625 55.0625 Z M 3.90625 2.5625 " clip-rule="nonzero"/></clipPath></defs><g clip-path="url(#eeea4aaada)"><path fill="#000000" d="M 48.75 10.210938 C 43.816406 5.300781 37.253906 2.589844 30.261719 2.589844 C 15.855469 2.589844 4.128906 14.25 4.125 28.582031 C 4.125 33.164062 5.328125 37.640625 7.613281 41.578125 L 3.90625 55.050781 L 17.761719 51.433594 C 21.578125 53.507812 25.878906 54.597656 30.25 54.597656 L 30.261719 54.597656 C 44.667969 54.597656 56.394531 42.9375 56.398438 28.605469 C 56.398438 21.65625 53.683594 15.128906 48.75 10.210938 Z M 30.261719 50.210938 L 30.253906 50.210938 C 26.359375 50.210938 22.53125 49.167969 19.195312 47.199219 L 18.402344 46.730469 L 10.179688 48.875 L 12.375 40.898438 L 11.855469 40.082031 C 9.683594 36.644531 8.535156 32.667969 8.539062 28.582031 C 8.542969 16.671875 18.289062 6.976562 30.269531 6.976562 C 36.074219 6.976562 41.527344 9.230469 45.628906 13.316406 C 49.730469 17.398438 51.988281 22.828125 51.984375 28.601562 C 51.980469 40.515625 42.234375 50.210938 30.257812 50.210938 Z M 42.179688 34.027344 C 41.527344 33.703125 38.316406 32.132812 37.714844 31.917969 C 37.117188 31.699219 36.683594 31.59375 36.246094 32.242188 C 35.8125 32.890625 34.558594 34.355469 34.179688 34.789062 C 33.796875 35.222656 33.417969 35.277344 32.761719 34.949219 C 32.113281 34.625 30.007812 33.9375 27.511719 31.726562 C 25.570312 30.003906 24.257812 27.875 23.878906 27.222656 C 23.496094 26.574219 23.839844 26.222656 24.164062 25.898438 C 24.457031 25.609375 24.816406 25.136719 25.144531 24.761719 C 25.472656 24.382812 25.582031 24.109375 25.796875 23.675781 C 26.015625 23.242188 25.90625 22.863281 25.742188 22.535156 C 25.578125 22.210938 24.273438 19.015625 23.730469 17.714844 C 23.199219 16.449219 22.660156 16.621094 22.261719 16.597656 C 21.878906 16.582031 21.445312 16.574219 21.007812 16.574219 C 20.574219 16.574219 19.867188 16.738281 19.265625 17.386719 C 18.667969 18.039062 16.980469 19.609375 16.980469 22.804688 C 16.980469 26.003906 19.320312 29.09375 19.648438 29.527344 C 19.976562 29.960938 24.257812 36.519531 30.808594 39.335938 C 32.363281 40.003906 33.582031 40.40625 34.53125 40.707031 C 36.097656 41.199219 37.519531 41.132812 38.644531 40.960938 C 39.898438 40.777344 42.507812 39.390625 43.050781 37.871094 C 43.597656 36.355469 43.597656 35.054688 43.433594 34.785156 C 43.269531 34.511719 42.832031 34.351562 42.179688 34.023438 Z M 42.179688 34.027344 " fill-opacity="1" fill-rule="evenodd"/></g></svg>